<svg xmlns="http://www.w3.org/2000/svg" viewBox="0 0 1125 2436"><defs><style>.cls-1{fill:#727272;}.cls-16,.cls-2{fill:none;}.cls-10,.cls-11,.cls-12,.cls-13,.cls-14,.cls-15,.cls-2,.cls-3,.cls-4,.cls-5,.cls-6,.cls-7,.cls-8,.cls-9{stroke:#727272;}.cls-10,.cls-11,.cls-12,.cls-13,.cls-14,.cls-15,.cls-16,.cls-2,.cls-3,.cls-4,.cls-5,.cls-6,.cls-7,.cls-8,.cls-9{stroke-linecap:round;stroke-linejoin:round;stroke-width:8px;}.cls-3{fill:#f4c5a2;}.cls-4{fill:#d88860;}.cls-5{fill:#ededf9;}.cls-6{fill:#7474e2;}.cls-7{fill:#a5bae0;}.cls-8{fill:#fdf3b8;}.cls-17,.cls-9{fill:#c1fedf;}.cls-10{fill:#e56a6a;}.cls-11{fill:#9c70ef;}.cls-12{fill:#f49aa1;}.cls-13{fill:#a09ccf;}.cls-14{fill:#e2d04d;}.cls-15{fill:#67cc5c;}.cls-16{stroke:#c1fedf;}</style></defs><title>hexagon culori</title><g id="Layer_4" data-name="Layer 4"><rect class="cls-1" y="-0.02" width="1125" height="2435.77"/></g><g id="Layer_1" data-name="Layer 1"><path class="cls-2" d="M712.76,1212.47V1170.9a14,14,0,0,0-7-12.12l-36-20.79a14,14,0,0,0-14,0l-36,20.79a14,14,0,0,0-7,12.12v41.57a14,14,0,0,0,7,12.12l36,20.79a14,14,0,0,0,14,0l36-20.79A14,14,0,0,0,712.76,1212.47Z"/><path class="cls-2" d="M512.76,1212.47V1170.9a14,14,0,0,0-7-12.12l-36-20.79a14,14,0,0,0-14,0l-36,20.79a14,14,0,0,0-7,12.12v41.57a14,14,0,0,0,7,12.12l36,20.79a14,14,0,0,0,14,0l36-20.79A14,14,0,0,0,512.76,1212.47Z"/><path class="cls-2" d="M662.76,1125.87V1084.3a14,14,0,0,0-7-12.12l-36-20.79a14,14,0,0,0-14,0l-36,20.79a14,14,0,0,0-7,12.12v41.57a14,14,0,0,0,7,12.12l36,20.79a14,14,0,0,0,14,0l36-20.79A14,14,0,0,0,662.76,1125.87Z"/><path class="cls-2" d="M562.76,1125.87V1084.3a14,14,0,0,0-7-12.12l-36-20.79a14,14,0,0,0-14,0l-36,20.79a14,14,0,0,0-7,12.12v41.57a14,14,0,0,0,7,12.12l36,20.79a14,14,0,0,0,14,0l36-20.79A14,14,0,0,0,562.76,1125.87Z"/><path class="cls-3" d="M812.76,1039.27V997.7a14,14,0,0,0-7-12.12l-36-20.79a14,14,0,0,0-14,0l-36,20.79a14,14,0,0,0-7,12.12v41.57a14,14,0,0,0,7,12.12l36,20.79a14,14,0,0,0,14,0l36-20.79A14,14,0,0,0,812.76,1039.27Z"/><path class="cls-4" d="M712.76,1039.27V997.7a14,14,0,0,0-7-12.12l-36-20.79a14,14,0,0,0-14,0l-36,20.79a14,14,0,0,0-7,12.12v41.57a14,14,0,0,0,7,12.12l36,20.79a14,14,0,0,0,14,0l36-20.79A14,14,0,0,0,712.76,1039.27Z"/><path class="cls-5" d="M612.76,1039.27V997.7a14,14,0,0,0-7-12.12l-36-20.79a14,14,0,0,0-14,0l-36,20.79a14,14,0,0,0-7,12.12v41.57a14,14,0,0,0,7,12.12l36,20.79a14,14,0,0,0,14,0l36-20.79A14,14,0,0,0,612.76,1039.27Z"/><path class="cls-6" d="M512.76,1039.27V997.7a14,14,0,0,0-7-12.12l-36-20.79a14,14,0,0,0-14,0l-36,20.79a14,14,0,0,0-7,12.12v41.57a14,14,0,0,0,7,12.12l36,20.79a14,14,0,0,0,14,0l36-20.79A14,14,0,0,0,512.76,1039.27Z"/><path class="cls-7" d="M412.76,1039.27V997.7a14,14,0,0,0-7-12.12l-36-20.79a14,14,0,0,0-14,0l-36,20.79a14,14,0,0,0-7,12.12v41.57a14,14,0,0,0,7,12.12l36,20.79a14,14,0,0,0,14,0l36-20.79A14,14,0,0,0,412.76,1039.27Z"/><path class="cls-8" d="M712.76,1212.47V1170.9a14,14,0,0,0-7-12.12l-36-20.79a14,14,0,0,0-14,0l-36,20.79a14,14,0,0,0-7,12.12v41.57a14,14,0,0,0,7,12.12l36,20.79a14,14,0,0,0,14,0l36-20.79A14,14,0,0,0,712.76,1212.47Z"/><path class="cls-9" d="M512.76,1212.47V1170.9a14,14,0,0,0-7-12.12l-36-20.79a14,14,0,0,0-14,0l-36,20.79a14,14,0,0,0-7,12.12v41.57a14,14,0,0,0,7,12.12l36,20.79a14,14,0,0,0,14,0l36-20.79A14,14,0,0,0,512.76,1212.47Z"/><path class="cls-10" d="M662.76,952.67V911.1a14,14,0,0,0-7-12.12l-36-20.79a14,14,0,0,0-14,0l-36,20.79a14,14,0,0,0-7,12.12v41.57a14,14,0,0,0,7,12.12l36,20.79a14,14,0,0,0,14,0l36-20.79A14,14,0,0,0,662.76,952.67Z"/><path class="cls-11" d="M562.76,952.67V911.1a14,14,0,0,0-7-12.12l-36-20.79a14,14,0,0,0-14,0l-36,20.79a14,14,0,0,0-7,12.12v41.57a14,14,0,0,0,7,12.12l36,20.79a14,14,0,0,0,14,0l36-20.79A14,14,0,0,0,562.76,952.67Z"/><path class="cls-12" d="M712.76,866.07V824.5a14,14,0,0,0-7-12.12l-36-20.79a14,14,0,0,0-14,0l-36,20.79a14,14,0,0,0-7,12.12v41.57a14,14,0,0,0,7,12.12l36,20.79a14,14,0,0,0,14,0l36-20.79A14,14,0,0,0,712.76,866.07Z"/><path class="cls-13" d="M512.76,866.07V824.5a14,14,0,0,0-7-12.12l-36-20.79a14,14,0,0,0-14,0l-36,20.79a14,14,0,0,0-7,12.12v41.57a14,14,0,0,0,7,12.12l36,20.79a14,14,0,0,0,14,0l36-20.79A14,14,0,0,0,512.76,866.07Z"/><path class="cls-14" d="M662.76,1125.87V1084.3a14,14,0,0,0-7-12.12l-36-20.79a14,14,0,0,0-14,0l-36,20.79a14,14,0,0,0-7,12.12v41.57a14,14,0,0,0,7,12.12l36,20.79a14,14,0,0,0,14,0l36-20.79A14,14,0,0,0,662.76,1125.87Z"/><path class="cls-15" d="M562.76,1125.87V1084.3a14,14,0,0,0-7-12.12l-36-20.79a14,14,0,0,0-14,0l-36,20.79a14,14,0,0,0-7,12.12v41.57a14,14,0,0,0,7,12.12l36,20.79a14,14,0,0,0,14,0l36-20.79A14,14,0,0,0,562.76,1125.87Z"/><line class="cls-16" x1="312.24" y1="1394.99" x2="812.24" y2="1394.99"/><line class="cls-16" x1="312.24" y1="1502.73" x2="812.24" y2="1502.73"/><circle class="cls-17" cx="718.37" cy="1394.99" r="17.9"/><circle class="cls-17" cx="589.69" cy="1502.73" r="17.9"/><circle class="cls-17" cx="545.01" cy="1628.38" r="17.9"/><rect class="cls-16" x="527.68" y="1610.48" width="69.7" height="35.81" rx="17.9"/></g></svg>